<?xml version="1.0" standalone="no"?>
<!DOCTYPE svg PUBLIC "-//W3C//DTD SVG 20010904//EN"
 "http://www.w3.org/TR/2001/REC-SVG-20010904/DTD/svg10.dtd">
<svg version="1.0" xmlns="http://www.w3.org/2000/svg"
 width="300.000000pt" height="300.000000pt" viewBox="0 0 300.000000 300.000000"
 preserveAspectRatio="xMidYMid meet">
<metadata>
Created by potrace 1.13, written by Peter Selinger 2001-2015
</metadata>
<g transform="translate(0.000000,300.000000) scale(0.100000,-0.100000)"
fill="#000000" stroke="none">
<path d="M600 2300 c-46 -43 -82 -81 -80 -83 3 -2 78 -41 167 -87 l162 -84
-42 -46 c-58 -62 -84 -106 -102 -175 -20 -80 -19 -150 5 -227 37 -119 109
-200 226 -255 52 -25 71 -28 159 -28 92 0 106 3 167 32 123 58 217 183 233
308 l7 50 -134 111 c-73 61 -256 213 -406 337 -150 125 -274 227 -275 227 -1
-1 -40 -37 -87 -80z m555 -412 c364 -190 338 -173 332 -223 -17 -124 -95 -234
-209 -296 -61 -33 -67 -34 -173 -34 -98 0 -116 3 -167 27 -155 73 -249 250
-219 415 16 85 43 142 98 204 36 39 50 48 67 43 11 -3 134 -65 271 -136z"/>
<path d="M1091 1793 c-89 -44 -96 -173 -12 -232 20 -15 44 -21 81 -21 47 0 56
4 91 39 35 35 39 44 39 91 0 109 -101 171 -199 123z"/>
<path d="M2015 2044 l-400 -332 1 -54 c2 -68 39 -152 94 -212 233 -252 638
-134 701 205 22 120 -19 255 -105 347 l-46 49 163 83 c89 46 164 85 166 86 4
4 -110 111 -153 145 -20 16 -32 7 -421 -317z m278 -64 c179 -199 118 -506
-121 -618 -50 -24 -69 -27 -162 -27 -99 0 -110 2 -172 33 -110 54 -185 154
-210 280 -11 53 -10 56 12 71 38 27 584 311 597 311 6 0 31 -22 56 -50z"/>
<path d="M1895 1798 c-70 -39 -97 -104 -70 -174 53 -139 265 -97 265 53 0 91
-117 164 -195 121z"/>
<path d="M412 1113 c-32 -13 -42 -61 -42 -199 l0 -137 -82 6 c-56 4 -92 1
-113 -7 -62 -27 -165 -169 -165 -229 0 -44 79 -335 104 -386 56 -110 119 -150
215 -137 24 3 70 1 102 -6 50 -10 72 -9 170 10 120 23 193 54 246 105 45 42
57 85 49 168 l-7 69 915 0 916 0 30 28 30 27 1 323 2 322 -23 25 -23 25 -1156
-1 c-636 0 -1162 -3 -1169 -6z m1783 -148 l17 -40 21 56 22 56 33 -15 c17 -9
32 -19 32 -22 0 -4 -16 -25 -36 -49 -20 -23 -34 -44 -32 -46 2 -3 20 0 39 5
60 17 69 14 69 -26 l0 -36 -57 7 -57 7 38 -47 c21 -25 37 -47 35 -49 -21 -14
-59 -36 -63 -36 -2 0 -12 22 -21 50 -9 27 -20 52 -24 54 -4 3 -15 -19 -25 -49
-9 -30 -19 -55 -22 -55 -4 0 -45 24 -63 37 -2 1 13 23 34 49 l38 46 -57 -7
-56 -7 0 36 c0 40 6 42 73 27 39 -9 47 -2 22 19 -9 7 -25 26 -36 41 l-20 29
33 20 c31 19 33 19 40 2 4 -9 15 -35 23 -57z m-205 18 c0 -27 -3 -105 -7 -175
l-6 -128 -43 0 c-32 0 -44 4 -48 18 -2 9 -8 88 -11 175 l-7 157 61 0 61 0 0
-47z m-373 10 c-3 -10 -8 -39 -12 -65 l-6 -48 34 0 34 0 9 63 9 62 38 3 c33 3
38 1 34 -15 -3 -10 -8 -39 -12 -65 l-6 -48 30 0 c29 0 31 -2 31 -39 0 -39 -1
-40 -37 -43 -36 -3 -38 -5 -41 -40 -3 -36 -2 -38 27 -38 29 0 31 -2 31 -40 0
-40 0 -40 -39 -40 l-39 0 -9 -62 -8 -63 -38 -3 c-33 -3 -38 -1 -34 15 3 10 8
39 12 66 l6 47 -35 0 -34 0 -9 -62 -8 -63 -38 -3 c-33 -3 -38 -1 -34 15 3 10
8 39 12 66 l6 47 -30 0 c-29 0 -31 2 -31 39 0 39 1 40 37 43 35 3 38 6 44 41
6 37 5 37 -28 37 -32 0 -33 1 -33 40 0 40 0 40 39 40 l39 0 7 58 c4 31 9 60
12 65 2 4 20 7 39 7 29 0 34 -3 31 -17z m-368 -53 c173 -88 152 -380 -27 -380
-30 0 -45 5 -56 21 l-15 21 -30 -21 c-44 -31 -107 -26 -134 11 -47 64 -9 182
73 226 38 20 55 23 104 19 32 -3 63 -10 68 -15 6 -6 4 -42 -6 -96 -17 -96 -13
-119 17 -114 29 4 58 48 64 96 22 167 -151 267 -299 173 -131 -83 -136 -311
-9 -378 48 -25 138 -31 187 -13 30 12 29 12 38 -17 6 -19 2 -23 -31 -32 -21
-6 -67 -11 -104 -11 -164 0 -270 130 -240 294 12 65 30 103 73 151 77 88 225
118 327 65z m-759 -180 c14 -21 12 -67 -2 -77 -7 -4 -54 -7 -105 -5 -85 2 -93
1 -121 -23 -36 -30 -58 -90 -78 -212 -14 -87 -18 -161 -9 -152 2 3 12 56 20
119 17 117 42 199 71 231 22 25 75 34 117 20 37 -13 45 -31 49 -115 1 -24 4
-10 7 34 6 74 6 75 35 78 81 10 102 -8 126 -103 9 -37 9 -38 5 -5 -2 19 -7 49
-10 66 -6 27 -4 33 13 38 45 15 73 -4 103 -68 32 -69 39 -62 9 9 -25 58 -25
55 4 55 32 0 65 -44 100 -133 34 -85 66 -209 66 -254 0 -110 -87 -179 -280
-219 -96 -20 -124 -22 -169 -14 -30 5 -89 10 -131 10 -69 0 -79 3 -111 29 -57
47 -94 131 -139 312 -44 179 -44 192 5 269 29 45 93 107 122 117 12 4 83 8
158 8 110 0 138 -3 145 -15z m1490 -140 c43 -43 11 -120 -50 -120 -62 0 -92
71 -48 117 27 29 71 30 98 3z"/>
</g>
</svg>
